<?xml version="1.0" standalone="no"?>
<!DOCTYPE svg PUBLIC "-//W3C//DTD SVG 20010904//EN"
 "http://www.w3.org/TR/2001/REC-SVG-20010904/DTD/svg10.dtd">
<svg version="1.0" xmlns="http://www.w3.org/2000/svg"
 width="220.000000pt" height="220.000000pt" viewBox="0 0 220.000000 220.000000"
 preserveAspectRatio="xMidYMid meet">
<metadata>
Created by potrace 1.11, written by Peter Selinger 2001-2013
</metadata>
<g transform="translate(0.000000,220.000000) scale(0.100000,-0.100000)"
fill="#000000" stroke="none">
<path d="M565 2129 c-303 -66 -508 -320 -507 -629 0 -246 138 -462 368 -574
51 -25 74 -42 74 -54 0 -27 83 -162 132 -212 24 -25 61 -60 83 -77 42 -32 155
-93 173 -93 5 0 28 -37 51 -82 108 -219 328 -357 567 -358 54 0 82 4 184 24
14 3 63 24 110 47 254 125 394 417 336 699 -40 194 -179 368 -358 450 -55 24
-60 30 -93 99 -20 41 -50 92 -67 115 -69 89 -177 172 -274 211 -34 13 -45 25
-64 68 -123 277 -423 430 -715 366z"/>
</g>
</svg>
